<svg width="2500" height="534" viewBox="0 0 2500 534" fill="none" xmlns="http://www.w3.org/2000/svg">
	<g clip-path="url(#clip0_200_2)">
		<path d="M266.933 0.0664062C119.65 0.0664062 0 119.716 0 267C0 414.283 119.65 533.933 266.933 533.933C414.217 533.933 533.866 414.283 533.866 267C533.866 119.716 414.217 0.0664062 266.933 0.0664062ZM266.933 507.181C134.349 507.181 26.7521 399.29 26.7521 267C26.7521 134.709 134.349 26.8185 266.933 26.8185C399.518 26.8185 507.114 134.709 507.114 267C507.114 399.29 399.518 507.181 266.933 507.181Z" fill="black" />
		<path d="M362.183 95.904C361.301 95.3161 360.125 95.0221 358.949 95.0221C355.421 95.0221 352.775 97.6679 352.775 101.196V184.686C352.775 187.626 350.423 189.977 347.484 189.977H185.795C182.855 189.977 180.797 187.626 180.503 184.686V101.196C180.503 100.02 180.209 99.1378 179.621 97.9619C177.858 95.0221 174.036 94.1402 171.096 95.904C111.418 132.651 75.2588 196.445 75.2588 267C75.2588 337.555 111.418 401.349 171.684 438.096C172.566 438.684 173.742 438.978 174.918 438.978C178.446 438.978 181.091 436.332 181.091 432.804V349.314C181.091 346.374 183.443 344.317 186.383 344.023H348.072C351.011 344.023 353.363 346.374 353.363 349.314V432.804C353.363 433.98 353.657 434.862 354.245 436.038C356.009 438.978 359.831 439.86 362.771 438.096C423.036 401.349 459.196 337.555 459.196 267C459.196 196.445 422.448 132.651 362.183 95.904ZM149.93 371.657L150.811 381.652L144.344 373.715C94.6614 311.097 94.6614 222.609 144.344 159.992L149.93 152.936L150.811 152.054L149.93 162.343C149.048 170.575 148.754 179.1 148.754 187.626V346.08C148.754 354.606 149.342 363.131 149.93 371.657ZM352.775 306.981C352.775 309.921 350.423 312.273 347.484 312.273H185.795C182.855 312.273 180.797 309.921 180.503 306.981V227.019C180.503 224.079 182.855 221.727 185.795 221.727H347.484C350.423 221.727 352.775 224.079 352.775 227.019V306.981ZM389.229 373.715L382.761 381.652L383.643 371.657C384.525 363.425 384.819 354.9 384.819 346.374V187.626C384.819 179.1 384.525 170.575 383.643 162.343L383.349 157.934L383.055 153.23V152.054L389.229 159.992C413.335 189.977 426.564 228.195 426.564 266.706C426.564 305.217 413.335 343.729 389.229 373.715Z" fill="black" />
		<path d="M936.618 262.297C935.148 261.709 933.384 261.121 933.384 259.357C933.384 258.181 933.972 257.299 935.148 256.711C937.206 255.829 988.065 237.602 988.065 177.631C988.065 110.897 943.086 71.2101 867.239 71.2101H683.502V463.379H883.996C942.498 463.379 1005.41 421.927 1005.41 355.194C1005.41 291.401 957.197 269.058 936.618 262.297ZM776.105 151.466C776.105 149.997 777.281 148.821 778.751 148.821H851.658C875.764 148.821 892.227 164.99 892.227 189.096C892.227 207.911 877.528 228.195 849.894 228.195H778.751C777.281 228.195 776.105 227.019 776.105 225.549V151.466ZM851.658 386.062H778.751C777.281 386.062 776.105 384.886 776.105 383.416V305.218C776.105 303.748 777.281 302.572 778.751 302.572H849.894C884.878 302.572 904.868 317.565 904.868 344.023C904.868 371.363 886.348 386.062 851.658 386.062ZM1626 227.313L1611.89 224.373C1580.14 217.612 1549.27 209.086 1549.27 181.746C1549.27 154.406 1574.85 142.059 1600.13 142.059C1629.82 142.059 1659.22 155.288 1681.56 178.219L1739.77 120.599C1714.78 92.9646 1670.39 61.2148 1598.66 61.2148C1512.23 61.2148 1454.02 110.309 1454.02 183.51C1454.02 260.827 1514.88 289.931 1566.03 300.808L1579.84 303.748C1629.53 314.331 1653.05 322.268 1653.05 350.49C1653.05 375.773 1630.41 392.53 1596.9 392.53C1557.5 392.53 1522.52 375.185 1496.06 342.553L1436.38 401.055C1468.13 438.684 1510.17 472.786 1598.07 472.786C1673.04 472.786 1749.18 429.277 1749.18 345.787C1748.88 260.239 1690.68 240.836 1626 227.313ZM2400.64 71.2101V214.672C2400.64 216.142 2399.46 217.318 2397.99 217.318H2277.46C2275.99 217.318 2274.81 216.142 2274.81 214.672V71.2101H2176.03V463.379H2274.81V309.333C2274.81 307.863 2275.99 306.688 2277.46 306.688H2397.99C2399.46 306.688 2400.64 307.863 2400.64 309.333V463.379H2500V71.2101H2400.64ZM1977.3 383.122C1932.91 383.122 1885 346.081 1885 264.649C1885 190.272 1929.97 151.466 1974.37 151.466C2006.7 151.466 2029.34 164.99 2047.27 194.975L2123.12 144.705C2084.31 87.673 2038.16 61.8028 1973.78 61.8028C1847.66 61.8028 1791.22 163.814 1791.22 264.649C1791.22 387.238 1865.89 472.786 1972.6 472.786C2051.98 472.786 2088.14 443.682 2126.06 389.884L2049.62 338.437C2032.57 366.071 2014.05 383.122 1977.3 383.122ZM1227.36 61.2148C1119.47 61.2148 1047.15 143.823 1047.15 267C1047.15 390.178 1119.47 472.786 1227.36 472.786C1335.25 472.786 1407.57 390.178 1407.57 267C1407.57 143.823 1335.25 61.2148 1227.36 61.2148ZM1227.36 383.122C1174.45 383.122 1140.35 337.555 1140.35 267C1140.35 196.739 1174.45 151.466 1227.36 151.466C1280.57 151.466 1314.97 196.739 1314.97 267C1314.97 337.555 1280.57 383.122 1227.36 383.122Z" fill="#F80000" />
	</g>
	<defs>	
		<clipPath id="clip0_200_2">
			<rect width="2500" height="534" fill="white" />
		</clipPath>
	</defs>
</svg>
