<svg width="88" height="88" viewBox="0 0 88 88" fill="none" xmlns="http://www.w3.org/2000/svg">
	<path d="M22.8089 65.191C30.0394 72.1988 38.1409 78.246 46.9139 83.187C52.7889 86.5464 59.6129 87.8706 66.3199 86.9604C73.0269 86.0503 79.2499 82.9526 84.0189 78.1479C88.3314 73.8393 88.3314 66.8469 84.0189 62.5349L76.0111 54.5271H76.0072C73.7924 52.3083 70.6205 51.3396 67.5424 51.9333C64.4643 52.527 61.8822 54.6091 60.6518 57.4919C54.2182 69.2619 43.1598 60.6247 35.0898 52.906C27.371 44.8435 18.7378 33.773 30.5039 27.344L30.5078 27.3479C33.3906 26.1174 35.4726 23.5354 36.0664 20.4573C36.6602 17.3792 35.6914 14.2073 33.4726 11.9925L25.4648 3.98474V3.98083C21.1523 -0.331665 14.1598 -0.331665 9.85179 3.98083C5.04709 8.75033 1.94949 14.9728 1.03929 21.6798C0.129129 28.3868 1.45335 35.2108 4.81269 41.0858C9.75409 49.8592 15.8009 57.961 22.8089 65.191Z" fill="white" />
</svg>
