<svg width="2500" height="1096" viewBox="0 0 2500 1096" fill="none" xmlns="http://www.w3.org/2000/svg">
	<g clip-path="url(#clip0_201_9)">
		<path d="M548.8 1096C851.439 1096 1097.23 850.929 1097.23 548.121C1097.23 245.298 851.439 0 548.8 0C245.694 0 0.367676 245.298 0.367676 548.121C0.367676 850.929 245.694 1096 548.8 1096Z" fill="#A50034" />
		<path d="M526.736 307.577V788.424H679.601V745.188H570.795V307.577H526.736ZM373.671 438.775C391.088 438.764 407.789 431.84 420.104 419.524C432.42 407.208 439.344 390.508 439.355 373.091C439.355 336.95 410.039 307.265 373.671 307.265C337.303 307.265 307.987 336.95 307.987 373.091C307.987 409.232 337.303 438.775 373.671 438.775Z" fill="white" />
		<path d="M570.781 89.452C563.506 89.105 556.225 88.8922 548.943 88.8135C295.798 88.8135 89.7773 294.905 89.7773 547.894C89.7773 670.777 137.526 785.955 224.012 872.569C310.853 958.984 426.088 1006.73 548.943 1006.73C671.329 1006.73 786.535 958.984 873.22 872.569C959.92 785.955 1007.89 670.777 1007.89 547.894V527.475H680.027V569.732H964.162C964.162 570.654 964.162 575.138 963.964 576.301C949.518 792.581 768.883 963.88 548.943 963.88C437.61 963.88 333.216 920.587 254.648 841.961C175.824 763.663 132.389 659.354 132.389 547.879C132.389 437.043 175.824 332.196 254.648 253.655C333.216 175.186 437.61 131.893 548.943 131.893C553.739 131.893 565.403 131.893 570.781 132.177V89.452Z" fill="white" />
		<path d="M1509.69 184.495H1344.89V897.926H1851.06V759.051H1509.69V184.495ZM2213.6 626.051H2347.82V750.793C2323.07 760.215 2274.81 769.608 2228.89 769.608C2080.57 769.608 2031.16 694.275 2031.16 541.267C2031.16 395.354 2078.21 309.322 2226.54 309.322C2308.96 309.322 2356.05 335.232 2394.84 384.684L2497.31 290.478C2434.9 201.083 2325.4 174.009 2223.02 174.009C1992.24 174.009 1871.01 299.957 1871.01 540.075C1871.01 779.03 1980.49 908.511 2221.85 908.511C2332.49 908.511 2440.8 880.274 2499.63 839.081V492.994H2213.6V626.051Z" fill="#6B6B6B" />
	</g>
	<defs>
		<clipPath id="clip0_201_9">
			<rect width="2500" height="1096" fill="white" />
		</clipPath>
	</defs>
</svg>
