<svg width="2168" height="335" viewBox="0 0 2168 335" fill="none" xmlns="http://www.w3.org/2000/svg">
	<path d="M0.666504 243.562V219.812H83.8748V250.021C83.8104 253.989 84.5969 257.926 86.1814 261.565C87.7658 265.205 90.1115 268.462 93.0605 271.119C96.0095 273.776 99.4935 275.771 103.278 276.968C107.062 278.166 111.059 278.539 115 278.062C121.732 278.975 128.561 277.326 134.133 273.44C139.705 269.554 143.614 263.716 145.083 257.083C147.311 249.485 147.122 241.382 144.542 233.896C128.437 193.396 18.3957 175.062 4.41651 111.937C1.57048 98.0699 1.3937 83.7873 3.89567 69.8538C12.479 19.1663 57.0207 0.833008 112.312 0.833008C156.333 0.833008 217 11.083 217 79.0413V101.166H139.708V81.7497C139.942 77.9225 139.344 74.0903 137.955 70.5161C136.567 66.942 134.422 63.7108 131.666 61.0445C128.911 58.3782 125.611 56.34 121.993 55.07C118.375 53.8 114.526 53.3282 110.708 53.6872C104.19 52.9694 97.6401 54.7375 92.3682 58.6383C87.0964 62.5391 83.4904 68.2852 82.2707 74.7288C81.4019 80.1089 81.5859 85.6064 82.8123 90.9164C91.9165 127.041 209.5 146.479 222.396 211.75C225.619 228.666 225.795 246.022 222.916 263C215.396 314.75 169.229 334.166 113.417 334.166C54.8332 334.166 0.666504 313.125 0.666504 243.562ZM1008.83 242.5V218.75H1090.98V248.416C1090.85 252.35 1091.57 256.264 1093.09 259.893C1094.62 263.521 1096.91 266.778 1099.8 269.441C1102.7 272.103 1106.14 274.109 1109.89 275.32C1113.63 276.531 1117.59 276.919 1121.5 276.458C1128.17 277.453 1134.97 275.894 1140.55 272.094C1146.12 268.294 1150.05 262.532 1151.56 255.958C1153.79 248.537 1153.61 240.602 1151.04 233.291C1135.46 193.396 1026.48 174.958 1012.54 111.937C1009.69 98.2537 1009.51 84.1487 1012 70.3955C1020.65 20.2497 1065.25 1.91634 1119.42 1.91634C1162.92 1.91634 1223.02 12.708 1223.02 79.583V101.166H1146.27V82.2913C1146.52 78.5113 1145.94 74.7229 1144.6 71.1829C1143.25 67.643 1141.15 64.4344 1138.46 61.7748C1135.76 59.1151 1132.52 57.0667 1128.96 55.7683C1125.41 54.4699 1121.61 53.952 1117.83 54.2497C1111.43 53.401 1104.95 55.061 1099.75 58.8822C1094.55 62.7033 1091.02 68.3893 1089.92 74.7497C1089.04 80.1282 1089.22 85.6262 1090.44 90.9372C1099.02 127.062 1215.44 145.958 1228.42 210.666C1231.64 227.4 1231.81 244.578 1228.94 261.375C1221.42 313.166 1175.79 332.041 1120.6 332.041C1062.54 332.083 1008.83 310.979 1008.83 242.5ZM1303.02 253.854C1302.27 247.04 1302.1 240.176 1302.5 233.333V9.99967H1380.87V240.312C1380.77 244.278 1380.95 248.246 1381.4 252.187C1383.14 258.682 1386.99 264.419 1392.32 268.51C1397.66 272.601 1404.2 274.818 1410.93 274.818C1417.65 274.818 1424.19 272.601 1429.53 268.51C1434.87 264.419 1438.71 258.682 1440.46 252.187C1440.92 248.247 1441.1 244.278 1441 240.312V9.99967H1519.42V233.291C1519.42 239.229 1518.87 250.562 1518.87 253.812C1513.52 312.146 1467.87 330.896 1410.98 330.896C1354.08 330.896 1308.4 312.041 1303.02 253.812V253.854ZM1948.31 250.604C1947.52 243.766 1947.15 236.884 1947.23 230V98.9997C1947.23 93.6038 1947.75 83.8955 1948.29 78.4789C1955.27 20.2497 2001.98 1.91634 2057.27 1.91634C2112.04 1.91634 2160.33 20.2497 2165.73 78.4997C2166.37 85.32 2166.55 92.1764 2166.25 99.0205V109.166H2087.87V91.9997C2087.89 88.0171 2087.53 84.0418 2086.81 80.1247C2084.75 73.5485 2080.65 67.8019 2075.09 63.7218C2069.54 59.6417 2062.83 57.4414 2055.94 57.4414C2049.05 57.4414 2042.33 59.6417 2036.78 63.7218C2031.23 67.8019 2027.12 73.5485 2025.06 80.1247C2024.16 84.9296 2023.8 89.8223 2024 94.708V237.083C2023.91 241.049 2024.09 245.017 2024.54 248.958C2026.4 256.02 2030.72 262.187 2036.72 266.35C2042.72 270.513 2050.01 272.398 2057.27 271.666C2064.41 272.426 2071.57 270.54 2077.41 266.365C2083.25 262.191 2087.35 256.019 2088.94 249.021C2089.66 245.106 2089.84 241.11 2089.48 237.146V191.771H2057.81V146.458H2167.33V230C2167.41 236.849 2167.05 243.697 2166.25 250.5C2160.9 307.125 2112.08 327.083 2057.27 327.083C2002.46 327.083 1953.67 307.187 1948.31 250.562V250.604ZM855.854 321.208L853.771 33.1872L800.021 321.208H721.646L668.479 33.1872L666.396 321.208H589.042L595.479 10.5413H721.646L760.833 253.271L800.021 10.5413H926.167L933.146 321.208H855.854ZM443.562 321.208L401.687 33.1872L358.729 321.208H275L331.917 10.5413H469.896L526.812 321.208H443.562ZM1755.58 317.979L1677.75 59.6247L1682.04 317.958H1605.79V10.5413H1720.67L1793.58 260.812L1789.4 10.5413H1866.17V318L1755.58 317.979Z" fill="black" />
</svg>
