<svg width="2500" height="398" viewBox="0 0 2500 398" fill="none" xmlns="http://www.w3.org/2000/svg">
	<path fill-rule="evenodd" clip-rule="evenodd" d="M2470.77 14.0747V88.5272C2432.2 73.9672 2397.85 66.6022 2367.8 66.6022C2349.99 66.6022 2335.82 69.9022 2325.16 76.2772C2314.5 82.7022 2309.06 90.6172 2309.06 99.9572C2309.06 112.375 2321.09 123.42 2345.32 133.312L2415.33 167.377C2471.93 194.357 2500 230.182 2500 275.185C2500 312.605 2485.11 342.44 2455.05 364.53C2425.21 386.84 2385.05 397.882 2335.05 397.882C2311.97 397.882 2291.25 396.895 2272.85 394.807C2254.44 392.827 2233.29 388.76 2209.82 382.937V305.022C2252.85 319.582 2292.02 326.947 2327.3 326.947C2369.39 326.947 2390.32 314.747 2390.32 290.13C2390.32 277.88 2381.75 267.987 2364.34 260.24L2286.58 227.105C2257.9 214.137 2236.58 198.422 2222.62 179.797C2208.89 161.005 2201.91 139.465 2201.91 114.847C2201.91 80.3972 2216.42 52.6472 2245.1 31.5472C2274 10.6122 2312.36 0.117188 2360.05 0.117188C2375.55 0.117188 2393.4 1.49219 2413.18 4.01719C2433.13 6.71219 2452.31 10.0072 2470.77 14.0747ZM268.692 14.0747V88.5272C230.117 73.9672 195.832 66.6022 165.775 66.6022C147.917 66.6022 133.798 69.9022 123.138 76.2772C112.478 82.7022 107.037 90.6172 107.037 99.9572C107.037 112.375 119.238 123.42 143.468 133.312L213.47 167.377C269.845 194.357 297.98 230.182 297.98 275.185C297.98 312.605 283.035 342.44 253.197 364.53C223.142 386.84 183.195 397.882 133.027 397.882C109.95 397.882 89.1775 396.895 70.7725 394.807C52.365 392.827 31.43 388.76 7.8025 382.937V305.022C50.9925 319.582 90.17 326.947 125.227 326.947C167.315 326.947 188.253 314.747 188.253 290.13C188.253 277.88 179.732 267.987 162.477 260.24L84.7275 227.105C55.8275 214.137 34.5075 198.422 20.77 179.797C6.8125 161.005 0 139.465 0 114.847C0 80.3972 14.3975 52.6472 43.2425 31.5472C71.9275 10.6122 110.335 0.117188 158.03 0.117188C173.69 0.117188 191.327 1.49219 211.33 4.01719C231.11 6.71219 250.285 10.0072 268.692 14.0747ZM462.933 7.09469V390.905H348.915V7.09219L462.933 7.09469ZM833.717 390.905H551.125V7.09219H830.257V78.0322H660.85V163.145H807.78V227.102H660.85V316.45H833.715L833.717 390.905ZM896.742 390.905V7.09219H1035.92L1130.93 242.05L1230.33 7.09219H1362.53V390.902H1256.09V137.762L1145.65 394.417H1079.94L973.725 137.762V390.905H896.742ZM1733.16 390.905H1450.57V7.09219H1729.69V78.0322H1561.22V163.145H1708.15V227.102H1561.22V316.45H1733.16V390.905ZM2129.76 390.905H2008.83L1873.11 144.74V390.905H1796.18V7.09219H1920.64L2052.84 249.027V7.09469H2129.76V390.905Z" fill="#019997" />
</svg>
