<svg width="1658" height="1671" viewBox="0 0 1658 1671" fill="none" xmlns="http://www.w3.org/2000/svg">
	<path d="M436.603 1445.05L463.693 1458.59C574.153 1524.29 700.437 1558.64 828.958 1557.92C1224.61 1557.02 1549.69 1231.17 1549.69 835.518C1549.69 644.308 1473.75 460.681 1338.7 325.321C1203.84 188.561 1019.58 111.489 827.559 111.489C433.713 111.489 109.669 435.578 109.669 829.378C109.669 832.494 109.669 835.564 109.715 838.68C110.901 972.569 148.348 1103.63 218.076 1217.94L236.135 1245.03L163.895 1511.42L436.603 1445.05Z" fill="#00E676" />
	<path d="M1419.07 244.051C1265.34 87.1977 1054.44 -0.798779 834.827 0.236573H833.427C381.159 0.237988 8.98578 372.413 8.98578 824.682C8.98578 826.804 9.03104 828.882 9.03104 831.005C10.7346 974.798 47.9592 1115.94 117.392 1241.87L0 1670.8L437.507 1557.92C558.368 1624.28 694.246 1658.48 832.119 1657.25C1286.06 1654.77 1658.19 1280.47 1657.92 826.488C1659 608.367 1572.99 398.6 1419.07 244.051ZM834.827 1517.29C712.613 1517.92 592.55 1485.14 487.622 1422.47L460.532 1408.93L200.015 1476.65L267.74 1219.3L249.681 1192.21C182.597 1083.89 147.056 959.001 147.054 831.59C147.054 455.851 456.244 146.66 831.984 146.66C1207.72 146.66 1516.91 455.851 1516.91 831.59C1516.91 1068.18 1394.33 1288.6 1193.32 1413.44C1087.01 1481.54 963.339 1517.59 837.086 1517.29M1233.96 1016.12L1184.29 993.545C1184.29 993.545 1112.05 961.938 1066.9 939.364C1062.39 939.364 1057.87 934.85 1053.35 934.85C1042.22 935.124 1031.35 938.232 1021.75 943.879C1012.13 949.523 1017.23 948.394 954.024 1020.63C949.736 1029.08 940.931 1034.36 931.45 1034.18H926.934C920.147 1033.04 913.856 1029.9 908.875 1025.15L886.299 1016.12C837.86 995.612 793.508 966.554 755.363 930.335C746.333 921.304 732.789 912.273 723.758 903.243C690.333 871.224 661.468 834.763 637.973 794.883L633.457 785.854C629.535 780.334 626.489 774.242 624.427 767.793C623.247 759.972 624.844 751.984 628.942 745.219C633.051 738.445 647.003 722.642 660.547 709.098C674.093 695.553 674.093 686.523 683.123 677.492C687.764 671.047 690.971 663.683 692.528 655.895C694.086 648.107 693.958 640.076 692.153 632.341C671.111 573.919 646.997 516.649 619.913 460.772C612.653 449.481 601.342 441.402 588.308 438.196H538.642C529.612 438.196 520.583 442.711 511.551 442.711L507.037 447.226C498.007 451.74 488.977 460.772 479.946 465.286C470.917 469.801 466.402 483.347 457.372 492.377C425.808 532.263 408.344 581.481 407.707 632.341C408.207 668.119 415.883 703.432 430.281 736.188L434.797 749.732C475.338 836.41 532.036 914.561 601.853 979.999L619.913 998.06C633.055 1008.94 645.148 1021.04 656.033 1034.18C749.583 1115.58 860.698 1174.28 980.663 1205.75C994.208 1210.27 1012.27 1210.27 1025.81 1214.78H1070.96C1094.56 1213.62 1117.64 1207.46 1138.69 1196.72C1149.75 1191.71 1160.32 1185.66 1170.29 1178.66L1179.32 1169.63C1188.35 1160.6 1197.38 1156.09 1206.41 1147.06C1215.24 1139.19 1222.85 1130.06 1228.99 1119.97C1237.66 1099.74 1243.75 1078.52 1247.05 1056.76V1025.15C1242.99 1021.5 1238.43 1018.46 1233.5 1016.12" fill="white" />
</svg>
